<svg id="SvgjsSvg1006" width="486" height="283" xmlns="http://www.w3.org/2000/svg" version="1.1" xmlns:xlink="http://www.w3.org/1999/xlink" xmlns:svgjs="http://svgjs.com/svgjs"><defs id="SvgjsDefs1007"><marker id="SvgjsMarker1028" markerWidth="14" markerHeight="10" refX="10" refY="5" viewBox="0 0 14 10" orient="auto" markerUnits="userSpaceOnUse" stroke-dasharray="0,0"><path id="SvgjsPath1029" d="M0,0 L14,5 L0,10 L0,0" fill="#6c7a7a" stroke="#6c7a7a" stroke-width="1"></path></marker><marker id="SvgjsMarker1038" markerWidth="14" markerHeight="10" refX="10" refY="5" viewBox="0 0 14 10" orient="auto" markerUnits="userSpaceOnUse" stroke-dasharray="0,0"><path id="SvgjsPath1039" d="M0,0 L14,5 L0,10 L0,0" fill="#616161" stroke="#616161" stroke-width="1"></path></marker><marker id="SvgjsMarker1048" markerWidth="14" markerHeight="10" refX="10" refY="5" viewBox="0 0 14 10" orient="auto" markerUnits="userSpaceOnUse" stroke-dasharray="0,0"><path id="SvgjsPath1049" d="M0,0 L14,5 L0,10 L0,0" fill="#6c7a7a" stroke="#6c7a7a" stroke-width="1"></path></marker><marker id="SvgjsMarker1070" markerWidth="14" markerHeight="10" refX="10" refY="5" viewBox="0 0 14 10" orient="auto" markerUnits="userSpaceOnUse" stroke-dasharray="0,0"><path id="SvgjsPath1071" d="M0,0 L14,5 L0,10 L0,0" fill="#6c7a7a" stroke="#6c7a7a" stroke-width="1"></path></marker><marker id="SvgjsMarker1074" markerWidth="18" markerHeight="14" refX="12" refY="7" viewBox="0 0 18 14" orient="auto" markerUnits="userSpaceOnUse" stroke-dasharray="0,0"><path id="SvgjsPath1075" d="M0,0 L18,7 L0,14 L0,0" fill="#000000" stroke="#000000" stroke-width="1"></path></marker><marker id="SvgjsMarker1078" markerWidth="14" markerHeight="10" refX="10" refY="5" viewBox="0 0 14 10" orient="auto" markerUnits="userSpaceOnUse" stroke-dasharray="0,0"><path id="SvgjsPath1079" d="M0,0 L14,5 L0,10 L0,0" fill="#616161" stroke="#616161" stroke-width="1"></path></marker><marker id="SvgjsMarker1082" markerWidth="18" markerHeight="14" refX="12" refY="7" viewBox="0 0 18 14" orient="auto" markerUnits="userSpaceOnUse" stroke-dasharray="0,0"><path id="SvgjsPath1083" d="M0,0 L18,7 L0,14 L0,0" fill="#000000" stroke="#000000" stroke-width="1"></path></marker><marker id="SvgjsMarker1107" markerWidth="14" markerHeight="10" refX="4" refY="5" viewBox="0 0 14 10" orient="auto" markerUnits="userSpaceOnUse" stroke-dasharray="0,0"><path id="SvgjsPath1108" d="M14,0 L0,5 L14,10 L14,0" fill="#6c7a7a" stroke="#6c7a7a" stroke-width="1"></path></marker><marker id="SvgjsMarker1111" markerWidth="14" markerHeight="10" refX="10" refY="5" viewBox="0 0 14 10" orient="auto" markerUnits="userSpaceOnUse" stroke-dasharray="0,0"><path id="SvgjsPath1112" d="M0,0 L14,5 L0,10 L0,0" fill="#6c7a7a" stroke="#6c7a7a" stroke-width="1"></path></marker><marker id="SvgjsMarker1115" markerWidth="14" markerHeight="10" refX="10" refY="5" viewBox="0 0 14 10" orient="auto" markerUnits="userSpaceOnUse" stroke-dasharray="0,0"><path id="SvgjsPath1116" d="M0,0 L14,5 L0,10 L0,0" fill="#6c7a7a" stroke="#6c7a7a" stroke-width="1"></path></marker><marker id="SvgjsMarker1119" markerWidth="18" markerHeight="14" refX="12" refY="7" viewBox="0 0 18 14" orient="auto" markerUnits="userSpaceOnUse" stroke-dasharray="0,0"><path id="SvgjsPath1120" d="M0,0 L18,7 L0,14 L0,0" fill="#000000" stroke="#000000" stroke-width="1"></path></marker><marker id="SvgjsMarker1137" markerWidth="14" markerHeight="10" refX="10" refY="5" viewBox="0 0 14 10" orient="auto" markerUnits="userSpaceOnUse" stroke-dasharray="0,0"><path id="SvgjsPath1138" d="M0,0 L14,5 L0,10 L0,0" fill="#6c7a7a" stroke="#6c7a7a" stroke-width="1"></path></marker></defs><g id="SvgjsG1008" transform="translate(25.003736413043498,25.004971590909065)"><path id="SvgjsPath1009" d="M 0 0L 435.71146245059276 0L 435.71146245059276 232.27272727272725L 0 232.27272727272725Z" stroke="none" fill-opacity="1" fill="#ffffff"></path><g id="SvgjsG1010"><text id="SvgjsText1011" font-family="Georgia" text-anchor="middle" font-size="12px" width="416px" fill="#646464" font-weight="700" align="middle" lineHeight="125%" anchor="middle" family="Georgia" size="12px" weight="700" font-style="" opacity="1" y="106.13636363636363" transform="rotate(0)"></text></g></g><g id="SvgjsG1012" transform="translate(31.186807388156183,28.838963685770835)"><path id="SvgjsPath1013" d="M 0 7.236057473421881C 0 -2.0674449924062515 74.98774801221259 -2.0674449924062515 74.98774801221259 7.236057473421881L 74.98774801221259 44.450067336734406C 74.98774801221259 53.75356980256254 0 53.75356980256254 0 44.450067336734406L 0 7.236057473421881Z" stroke="rgba(0,96,100,1)" stroke-width="2" fill-opacity="1" fill="#b2ebf2"></path><path id="SvgjsPath1014" d="M 74.98774801221259 7.236057473421881C 74.98774801221259 15.505837443046886 0 15.505837443046886 0 7.236057473421881L 0 10.337224962031257C 0 18.607004931656263 74.98774801221259 18.607004931656263 74.98774801221259 10.337224962031257L 74.98774801221259 13.438392450640634C 74.98774801221259 21.70817242026564 0 21.70817242026564 0 13.438392450640634C 0 21.70817242026564 74.98774801221259 21.70817242026564 74.98774801221259 13.438392450640634Z" stroke="rgba(0,96,100,1)" stroke-width="2" fill-opacity="1" fill="#b2ebf2"></path><path id="SvgjsPath1015" d="M 0 5.168612481015629Q 37.493874006106296 -5.168612481015629 74.98774801221259 5.168612481015629L 74.98774801221259 46.51751232914066Q 37.493874006106296 56.85473729117192 0 46.51751232914066L 0 5.168612481015629Z" stroke="none" fill="none"></path><g id="SvgjsG1016"><text id="SvgjsText1017" font-family="Georgia" text-anchor="middle" font-size="12px" width="75px" fill="#646464" font-weight="700" align="middle" lineHeight="125%" anchor="middle" family="Georgia" size="12px" weight="700" font-style="" opacity="1" y="24.45741654010419" transform="rotate(0)"><tspan id="SvgjsTspan1018" dy="15" x="37.5"><tspan id="SvgjsTspan1019" style="text-decoration:;">NCBI</tspan></tspan></text></g></g><g id="SvgjsG1020" transform="translate(277.54560739484805,36.75236122319981)"><path id="SvgjsPath1021" d="M 13.833333333333334 0L 53.9927536231883 0C 72.43719806763275 0 72.43719806763275 41.5 53.9927536231883 41.5L 13.833333333333334 41.5C -4.611111111111112 41.5 -4.611111111111112 0 13.833333333333334 0Z" stroke="rgba(56,142,60,1)" stroke-width="2" fill-opacity="1" fill="#c8e6c9"></path><g id="SvgjsG1022"><text id="SvgjsText1023" font-family="Georgia" text-anchor="middle" font-size="12px" width="48px" fill="#646464" font-weight="700" align="middle" lineHeight="125%" anchor="middle" family="Georgia" size="12px" weight="700" font-style="" opacity="1" y="10.75" transform="rotate(0)"><tspan id="SvgjsTspan1024" dy="15" x="34"><tspan id="SvgjsTspan1025" style="text-decoration:;">Tree</tspan></tspan></text></g></g><g id="SvgjsG1026"><path id="SvgjsPath1027" d="M276.54560739484805 57.50236122319981L262.65471848779634 57.50236122319981L262.65471848779634 57.50236122319981L251.36382958074466 57.50236122319981" stroke="#6c7a7a" stroke-width="2" fill="none" marker-end="url(#SvgjsMarker1028)"></path></g><g id="SvgjsG1030" transform="translate(197.97966809005982,41.00236122319984)"><path id="SvgjsPath1031" d="M 0 16.49999999999997L 8.29736024844749 0L 41.48680124223745 0L 49.78416149068494 16.49999999999997L 41.48680124223745 32.99999999999994L 8.29736024844749 32.99999999999994L 0 16.49999999999997Z" stroke="rgba(229,115,115,1)" stroke-width="2" fill-opacity="1" fill="#ffcdd2"></path><g id="SvgjsG1032"><text id="SvgjsText1033" font-family="Georgia" text-anchor="middle" font-size="12px" width="30px" fill="#616161" font-weight="700" align="middle" lineHeight="125%" anchor="middle" family="Georgia" size="12px" weight="700" font-style="" opacity="1" y="6.499999999999972" transform="rotate(0)"><tspan id="SvgjsTspan1034" dy="15" x="25"><tspan id="SvgjsTspan1035" style="text-decoration:;">leaf</tspan></tspan></text></g></g><g id="SvgjsG1036"><path id="SvgjsPath1037" d="M68.68068139426254 81.52508849592681L68.68068139426254 91.1595069241265L68.68068139426242 91.1595069241265L68.68068139426242 98.19392535232612" stroke="#616161" stroke-width="2" fill="none" marker-end="url(#SvgjsMarker1038)"></path></g><g id="SvgjsG1040" transform="translate(41.18068139426242,101.79392535232614)"><path id="SvgjsPath1041" d="M 0 15.5L 9.166666666666666 0L 45.833333333333336 0L 55 15.5L 45.833333333333336 31L 9.166666666666666 31L 0 15.5Z" stroke="rgba(229,115,115,1)" stroke-width="2" fill-opacity="1" fill="#ffcdd2"></path><g id="SvgjsG1042"><text id="SvgjsText1043" font-family="Georgia" text-anchor="middle" font-size="12px" width="35px" fill="#616161" font-weight="700" align="middle" lineHeight="125%" anchor="middle" family="Georgia" size="12px" weight="700" font-style="" opacity="1" y="5.5" transform="rotate(0)"><tspan id="SvgjsTspan1044" dy="15" x="27.5"><tspan id="SvgjsTspan1045" style="text-decoration:;">cache</tspan></tspan></text></g></g><g id="SvgjsG1046"><path id="SvgjsPath1047" d="M68.68068139426225 133.79392535232614L68.68068139426225 145.80566445588443L68.68068139426242 145.80566445588443L68.68068139426242 154.71740355944263" stroke="#6c7a7a" stroke-width="2" fill="none" marker-end="url(#SvgjsMarker1048)"></path></g><g id="SvgjsG1050" transform="translate(34.86263083307597,158.81740355944265)"><path id="SvgjsPath1051" d="M 10.145415168355935 0L 60.44155143435074 0C 69.59825103728804 0 69.59825103728804 43.167298128132984 60.44155143435074 43.167298128132984L 10.145415168355935 43.167298128132984C -3.3818050561186457 43.167298128132984 -3.3818050561186457 0 10.145415168355935 0ZM 60.44155143435074 0C 51.44836432432304 0 51.44836432432304 43.167298128132984 60.44155143435074 43.167298128132984C 51.44836432432304 43.167298128132984 51.44836432432304 0 60.44155143435074 0" stroke="rgba(158,158,158,1)" stroke-width="3" fill-opacity="1" fill="#e0e0e0"></path><g id="SvgjsG1052"><text id="SvgjsText1053" font-family="Georgia" text-anchor="middle" font-size="12px" width="55px" fill="#646464" font-weight="700" align="middle" lineHeight="125%" anchor="middle" family="Georgia" size="12px" weight="700" font-style="" opacity="1" y="11.583649064066492" transform="rotate(0)"><tspan id="SvgjsTspan1054" dy="15" x="27.5"><tspan id="SvgjsTspan1055" style="text-decoration:;">Taxadb</tspan></tspan></text></g></g><g id="SvgjsG1056" transform="translate(189.3717488354024,164.90105262350914)"><path id="SvgjsPath1057" d="M 0 15.5L 11.166666666666666 0L 55.833333333333336 0L 67 15.5L 55.833333333333336 31L 11.166666666666666 31L 0 15.5Z" stroke="rgba(229,115,115,1)" stroke-width="2" fill-opacity="1" fill="#ffcdd2"></path><g id="SvgjsG1058"><text id="SvgjsText1059" font-family="Georgia" text-anchor="middle" font-size="12px" width="47px" fill="#616161" font-weight="700" align="middle" lineHeight="125%" anchor="middle" family="Georgia" size="12px" weight="700" font-style="" opacity="1" y="5.5" transform="rotate(0)"><tspan id="SvgjsTspan1060" dy="15" x="33.5"><tspan id="SvgjsTspan1061" style="text-decoration:;">search</tspan></tspan></text></g></g><g id="SvgjsG1062" transform="translate(114.39095590294716,96.9517069233545)"><path id="SvgjsPath1063" d="M 0 39.375L 0 0L 67.60798253864198 0L 67.60798253864198 39.375Q 50.70598690398148 28.125 33.80399126932099 39.375Q 16.901995634660494 50.625 0 39.375Z" stroke="rgba(0,96,100,1)" stroke-width="2" fill-opacity="1" fill="#b2ebf2"></path><g id="SvgjsG1064"><text id="SvgjsText1065" font-family="Georgia" text-anchor="middle" font-size="12px" width="68px" fill="#646464" font-weight="700" align="middle" lineHeight="125%" anchor="middle" family="Georgia" size="12px" weight="700" font-style="" opacity="1" y="10.25" transform="rotate(0)"><tspan id="SvgjsTspan1066" dy="15" x="34"><tspan id="SvgjsTspan1067" style="text-decoration:;">Revision</tspan></tspan></text></g></g><g id="SvgjsG1068"><path id="SvgjsPath1069" d="M148.19494717226814 137.85628707602643L148.19494717226814 157.52153842437684L148.1949471722681 157.52153842437684L148.1949471722681 178.18678977272725" stroke="#6c7a7a" stroke-width="2" fill="none" marker-end="url(#SvgjsMarker1070)"></path></g><g id="SvgjsG1072"><path id="SvgjsPath1073" d="M257.3717488354024 180.40105262350914L267.66519985425543 180.40105262350914L267.66519985425543 180.40105262350914L272.7586508731083 180.40105262350914" stroke="#000000" stroke-width="4" fill="none" marker-end="url(#SvgjsMarker1074)"></path></g><g id="SvgjsG1076"><path id="SvgjsPath1077" d="M311.4586508731089 79.25236122319956L311.4586508731089 118.07670692335432L311.45865087310835 118.07670692335432L311.45865087310835 154.30105262350912" stroke="#616161" stroke-width="2" fill="none" marker-end="url(#SvgjsMarker1078)"></path></g><g id="SvgjsG1080"><path id="SvgjsPath1081" d="M344.95865087310835 180.40105262350914L356.3484593864898 180.40105262350914L356.3484593864898 180.40105262350914L362.53826789987124 180.40105262350914" stroke="#000000" stroke-width="4" fill="none" marker-end="url(#SvgjsMarker1082)"></path></g><g id="SvgjsG1084" transform="translate(368.7382678998713,126.17217574434494)"><path id="SvgjsPath1085" d="M 0 0L 0 108.45775375832847L 84.24965823649211 108.45775375832847L 84.24965823649211 27.114438439582116L 56.166438824328075 0L 0 0Z" stroke="rgba(13,71,161,1)" stroke-width="2" fill-opacity="1" fill="#bbdefb"></path><path id="SvgjsPath1086" d="M 56.166438824328075 0L 56.166438824328075 27.114438439582116L 84.24965823649211 27.114438439582116" stroke="rgba(13,71,161,1)" stroke-width="2" fill-opacity="1" fill="#bbdefb"></path><path id="SvgjsPath1087" d="M 7.020804853041009 12.038146146527373L 24.572816985643534 12.038146146527373L 24.572816985643534 6.615258458610949L 35.10402426520505 16.557219219791058L 24.572816985643534 26.499179980971164L 24.572816985643534 21.076292293054742L 7.020804853041009 21.076292293054742L 7.020804853041009 12.038146146527373Z" stroke="rgba(13,71,161,1)" stroke-width="2" fill-opacity="1" fill="#323232"></path><path id="SvgjsPath1088" d="M 0 0L 84.24965823649211 0L 84.24965823649211 108.45775375832847L 0 108.45775375832847Z" stroke="none" fill="none"></path><g id="SvgjsG1089"><text id="SvgjsText1090" font-family="Georgia" text-anchor="middle" font-size="12px" width="65px" fill="#646464" font-weight="700" align="middle" lineHeight="125%" anchor="middle" family="Georgia" size="12px" weight="700" font-style="" opacity="1" y="21.728876879164233" transform="rotate(0)"><tspan id="SvgjsTspan1091" dy="15" x="42.5"><tspan id="SvgjsTspan1092" style="text-decoration:;"> </tspan></tspan><tspan id="SvgjsTspan1093" dy="15" x="42.5"><tspan id="SvgjsTspan1094" style="text-decoration:;">Phylogeny</tspan></tspan><tspan id="SvgjsTspan1095" dy="15" x="42.5"><tspan id="SvgjsTspan1096" style="text-decoration:;">Lineage</tspan></tspan><tspan id="SvgjsTspan1097" dy="15" x="42.5"><tspan id="SvgjsTspan1098" style="text-decoration:;">Entropy</tspan></tspan></text></g></g><g id="SvgjsG1099" transform="translate(278.95865087310835,157.90105262350914)"><path id="SvgjsPath1100" d="M 0 3.2Q 0 0 3.2 0L 48.800000000000004 0Q 52 0 52 3.2L 52 32.800000000000004Q 52 36 48.800000000000004 36L 3.2 36Q 0 36 0 32.800000000000004L 0 3.2M 52 6L 65 22.5L 48.800000000000004 45L 24.375 45L 16.25 36L 48.800000000000004 36Q 52 36 52 32.800000000000004" stroke="rgba(183,28,28,1)" stroke-width="2" fill-opacity="1" fill="#e57373"></path><g id="SvgjsG1101"><text id="SvgjsText1102" font-family="Georgia" text-anchor="middle" font-size="18px" width="52px" fill="#ffffff" font-weight="700" align="middle" lineHeight="125%" anchor="middle" family="Georgia" size="18px" weight="700" font-style="" opacity="1" y="2.25" transform="rotate(0)"><tspan id="SvgjsTspan1103" dy="22" x="26"><tspan id="SvgjsTspan1104" style="text-decoration:;">run</tspan></tspan></text></g></g><g id="SvgjsG1105"><path id="SvgjsPath1106" d="M164.26649084540105 230.47574353414473L222.8717488354024 230.47574353414473L222.8717488354024 196.90105262350914" stroke="#6c7a7a" stroke-width="2" fill="none" marker-start="url(#SvgjsMarker1107)"></path></g><g id="SvgjsG1109"><path id="SvgjsPath1110" d="M222.8717488354023 138.82559527391254L222.8717488354023 151.36332394871084L222.8717488354024 151.36332394871084L222.8717488354024 161.30105262350912" stroke="#6c7a7a" stroke-width="2" fill="none" marker-end="url(#SvgjsMarker1111)"></path></g><g id="SvgjsG1113"><path id="SvgjsPath1114" d="M222.8717488354008 75.00236122320024L222.8717488354008 85.65154524090434L222.8717488354023 85.65154524090434L222.8717488354023 93.70072925860842" stroke="#6c7a7a" stroke-width="2" fill="none" marker-end="url(#SvgjsMarker1115)"></path></g><g id="SvgjsG1117"><path id="SvgjsPath1118" d="M103.99873195544887 180.40105262350914L145.93524039542564 180.40105262350914L145.93524039542564 180.40105262350914L183.1717488354024 180.40105262350914" stroke="#000000" stroke-width="4" fill="none" marker-end="url(#SvgjsMarker1119)"></path></g><g id="SvgjsG1121" transform="translate(93.05850830675905,207.97574353414473)"><path id="SvgjsPath1122" d="M 0 39.375L 0 0L 67.60798253864198 0L 67.60798253864198 39.375Q 50.70598690398148 28.125 33.80399126932099 39.375Q 16.901995634660494 50.625 0 39.375Z" stroke="rgba(0,96,100,1)" stroke-width="2" fill-opacity="1" fill="#b2ebf2"></path><g id="SvgjsG1123"><text id="SvgjsText1124" font-family="Georgia" text-anchor="middle" font-size="12px" width="68px" fill="#646464" font-weight="700" align="middle" lineHeight="125%" anchor="middle" family="Georgia" size="12px" weight="700" font-style="" opacity="1" y="10.25" transform="rotate(0)"><tspan id="SvgjsTspan1125" dy="15" x="34"><tspan id="SvgjsTspan1126" style="text-decoration:;">Lineage</tspan></tspan></text></g></g><g id="SvgjsG1127" transform="translate(200.20921295027375,97.30072925860844)"><path id="SvgjsPath1128" d="M 0 40.52486601530408L 0 0L 45.325071770256955 0L 45.325071770256955 40.52486601530408Q 33.993803827692716 32.97068738692792 22.662535885128477 40.52486601530408Q 11.331267942564239 48.07904464368024 0 40.52486601530408Z" stroke="rgba(158,158,158,1)" stroke-width="2" fill-opacity="1" fill="#e0e0e0"></path><g id="SvgjsG1129"><text id="SvgjsText1130" font-family="Georgia" text-anchor="middle" font-size="12px" width="46px" fill="#646464" font-weight="700" align="middle" lineHeight="125%" anchor="middle" family="Georgia" size="12px" weight="700" font-style="" opacity="1" y="2.435879898271473" transform="rotate(0)"><tspan id="SvgjsTspan1131" dy="15" x="23"><tspan id="SvgjsTspan1132" style="text-decoration:;">name </tspan></tspan><tspan id="SvgjsTspan1133" dy="15" x="23"><tspan id="SvgjsTspan1134" style="text-decoration:;">list</tspan></tspan></text></g></g><g id="SvgjsG1135"><path id="SvgjsPath1136" d="M126.86249957608004 206.97574353414473L126.86249957608004 195.80853938070868L126.86249957608004 195.80853938070868L126.86249957608004 183.6413352272727" stroke="#6c7a7a" stroke-width="2" fill="none" marker-end="url(#SvgjsMarker1137)"></path></g></svg>