<svg id="SvgjsSvg1006" width="486" height="283" xmlns="http://www.w3.org/2000/svg" version="1.1" xmlns:xlink="http://www.w3.org/1999/xlink" xmlns:svgjs="http://svgjs.com/svgjs"><defs id="SvgjsDefs1007"><marker id="SvgjsMarker1028" markerWidth="14" markerHeight="10" refX="10" refY="5" viewBox="0 0 14 10" orient="auto" markerUnits="userSpaceOnUse" stroke-dasharray="0,0"><path id="SvgjsPath1029" d="M0,0 L14,5 L0,10 L0,0" fill="#6c7a7a" stroke="#6c7a7a" stroke-width="1"></path></marker><marker id="SvgjsMarker1038" markerWidth="14" markerHeight="10" refX="10" refY="5" viewBox="0 0 14 10" orient="auto" markerUnits="userSpaceOnUse" stroke-dasharray="0,0"><path id="SvgjsPath1039" d="M0,0 L14,5 L0,10 L0,0" fill="#616161" stroke="#616161" stroke-width="1"></path></marker><marker id="SvgjsMarker1048" markerWidth="14" markerHeight="10" refX="10" refY="5" viewBox="0 0 14 10" orient="auto" markerUnits="userSpaceOnUse" stroke-dasharray="0,0"><path id="SvgjsPath1049" d="M0,0 L14,5 L0,10 L0,0" fill="#6c7a7a" stroke="#6c7a7a" stroke-width="1"></path></marker><marker id="SvgjsMarker1070" markerWidth="14" markerHeight="10" refX="10" refY="5" viewBox="0 0 14 10" orient="auto" markerUnits="userSpaceOnUse" stroke-dasharray="0,0"><path id="SvgjsPath1071" d="M0,0 L14,5 L0,10 L0,0" fill="#6c7a7a" stroke="#6c7a7a" stroke-width="1"></path></marker><marker id="SvgjsMarker1074" markerWidth="18" markerHeight="14" refX="12" refY="7" viewBox="0 0 18 14" orient="auto" markerUnits="userSpaceOnUse" stroke-dasharray="0,0"><path id="SvgjsPath1075" d="M0,0 L18,7 L0,14 L0,0" fill="#000000" stroke="#000000" stroke-width="1"></path></marker><marker id="SvgjsMarker1078" markerWidth="14" markerHeight="10" refX="10" refY="5" viewBox="0 0 14 10" orient="auto" markerUnits="userSpaceOnUse" stroke-dasharray="0,0"><path id="SvgjsPath1079" d="M0,0 L14,5 L0,10 L0,0" fill="#616161" stroke="#616161" stroke-width="1"></path></marker><marker id="SvgjsMarker1082" markerWidth="18" markerHeight="14" refX="12" refY="7" viewBox="0 0 18 14" orient="auto" markerUnits="userSpaceOnUse" stroke-dasharray="0,0"><path id="SvgjsPath1083" d="M0,0 L18,7 L0,14 L0,0" fill="#000000" stroke="#000000" stroke-width="1"></path></marker><marker id="SvgjsMarker1113" markerWidth="14" markerHeight="10" refX="4" refY="5" viewBox="0 0 14 10" orient="auto" markerUnits="userSpaceOnUse" stroke-dasharray="0,0"><path id="SvgjsPath1114" d="M14,0 L0,5 L14,10 L14,0" fill="#6c7a7a" stroke="#6c7a7a" stroke-width="1"></path></marker><marker id="SvgjsMarker1117" markerWidth="14" markerHeight="10" refX="10" refY="5" viewBox="0 0 14 10" orient="auto" markerUnits="userSpaceOnUse" stroke-dasharray="0,0"><path id="SvgjsPath1118" d="M0,0 L14,5 L0,10 L0,0" fill="#6c7a7a" stroke="#6c7a7a" stroke-width="1"></path></marker><marker id="SvgjsMarker1121" markerWidth="14" markerHeight="10" refX="10" refY="5" viewBox="0 0 14 10" orient="auto" markerUnits="userSpaceOnUse" stroke-dasharray="0,0"><path id="SvgjsPath1122" d="M0,0 L14,5 L0,10 L0,0" fill="#6c7a7a" stroke="#6c7a7a" stroke-width="1"></path></marker><marker id="SvgjsMarker1133" markerWidth="14" markerHeight="10" refX="4" refY="5" viewBox="0 0 14 10" orient="auto" markerUnits="userSpaceOnUse" stroke-dasharray="0,0"><path id="SvgjsPath1134" d="M14,0 L0,5 L14,10 L14,0" fill="#6c7a7a" stroke="#6c7a7a" stroke-width="1"></path></marker><marker id="SvgjsMarker1137" markerWidth="18" markerHeight="14" refX="12" refY="7" viewBox="0 0 18 14" orient="auto" markerUnits="userSpaceOnUse" stroke-dasharray="0,0"><path id="SvgjsPath1138" d="M0,0 L18,7 L0,14 L0,0" fill="#000000" stroke="#000000" stroke-width="1"></path></marker></defs><g id="SvgjsG1008" transform="translate(25.003736413043498,25.00203804347828)"><path id="SvgjsPath1009" d="M 0 0L 435.6521739130435 0L 435.6521739130435 232.17391304347828L 0 232.17391304347828Z" stroke="none" fill-opacity="1" fill="#ffffff"></path><g id="SvgjsG1010"><text id="SvgjsText1011" font-family="Georgia" text-anchor="middle" font-size="12px" width="416px" fill="#646464" font-weight="700" align="middle" lineHeight="125%" anchor="middle" family="Georgia" size="12px" weight="700" font-style="" opacity="1" y="106.08695652173914" transform="rotate(0)"></text></g></g><g id="SvgjsG1012" transform="translate(31.186807388156183,28.480298913043555)"><path id="SvgjsPath1013" d="M 0 7.236057473421881C 0 -2.0674449924062515 74.98774801221259 -2.0674449924062515 74.98774801221259 7.236057473421881L 74.98774801221259 44.450067336734406C 74.98774801221259 53.75356980256254 0 53.75356980256254 0 44.450067336734406L 0 7.236057473421881Z" stroke="rgba(56,142,60,1)" stroke-width="2" fill-opacity="1" fill="#c8e6c9"></path><path id="SvgjsPath1014" d="M 74.98774801221259 7.236057473421881C 74.98774801221259 15.505837443046886 0 15.505837443046886 0 7.236057473421881L 0 10.337224962031257C 0 18.607004931656263 74.98774801221259 18.607004931656263 74.98774801221259 10.337224962031257L 74.98774801221259 13.438392450640634C 74.98774801221259 21.70817242026564 0 21.70817242026564 0 13.438392450640634C 0 21.70817242026564 74.98774801221259 21.70817242026564 74.98774801221259 13.438392450640634Z" stroke="rgba(56,142,60,1)" stroke-width="2" fill-opacity="1" fill="#c8e6c9"></path><path id="SvgjsPath1015" d="M 0 5.168612481015629Q 37.493874006106296 -5.168612481015629 74.98774801221259 5.168612481015629L 74.98774801221259 46.51751232914066Q 37.493874006106296 56.85473729117192 0 46.51751232914066L 0 5.168612481015629Z" stroke="none" fill="none"></path><g id="SvgjsG1016"><text id="SvgjsText1017" font-family="Georgia" text-anchor="middle" font-size="12px" width="75px" fill="#646464" font-weight="700" align="middle" lineHeight="125%" anchor="middle" family="Georgia" size="12px" weight="700" font-style="" opacity="1" y="24.45741654010419" transform="rotate(0)"><tspan id="SvgjsTspan1018" dy="15" x="37.5"><tspan id="SvgjsTspan1019" style="text-decoration:;">NCBI</tspan></tspan></text></g></g><g id="SvgjsG1020" transform="translate(277.54560739484805,38.66642372319981)"><path id="SvgjsPath1021" d="M 13.833333333333334 0L 53.9927536231883 0C 72.43719806763275 0 72.43719806763275 41.5 53.9927536231883 41.5L 13.833333333333334 41.5C -4.611111111111112 41.5 -4.611111111111112 0 13.833333333333334 0Z" stroke="rgba(56,142,60,1)" stroke-width="2" fill-opacity="1" fill="#c8e6c9"></path><g id="SvgjsG1022"><text id="SvgjsText1023" font-family="Georgia" text-anchor="middle" font-size="12px" width="48px" fill="#646464" font-weight="700" align="middle" lineHeight="125%" anchor="middle" family="Georgia" size="12px" weight="700" font-style="" opacity="1" y="10.75" transform="rotate(0)"><tspan id="SvgjsTspan1024" dy="15" x="34"><tspan id="SvgjsTspan1025" style="text-decoration:;">Tree</tspan></tspan></text></g></g><g id="SvgjsG1026"><path id="SvgjsPath1027" d="M276.54560739484805 59.41642372319981L262.65471848779634 59.41642372319981L262.65471848779634 59.41642372319981L251.36382958074466 59.41642372319981" stroke="#6c7a7a" stroke-width="2" fill="none" marker-end="url(#SvgjsMarker1028)"></path></g><g id="SvgjsG1030" transform="translate(197.97966809005982,42.91642372319984)"><path id="SvgjsPath1031" d="M 0 16.49999999999997L 8.29736024844749 0L 41.48680124223745 0L 49.78416149068494 16.49999999999997L 41.48680124223745 32.99999999999994L 8.29736024844749 32.99999999999994L 0 16.49999999999997Z" stroke="rgba(229,115,115,1)" stroke-width="2" fill-opacity="1" fill="#ffcdd2"></path><g id="SvgjsG1032"><text id="SvgjsText1033" font-family="Georgia" text-anchor="middle" font-size="12px" width="30px" fill="#616161" font-weight="700" align="middle" lineHeight="125%" anchor="middle" family="Georgia" size="12px" weight="700" font-style="" opacity="1" y="6.499999999999972" transform="rotate(0)"><tspan id="SvgjsTspan1034" dy="15" x="25"><tspan id="SvgjsTspan1035" style="text-decoration:;">leaf</tspan></tspan></text></g></g><g id="SvgjsG1036"><path id="SvgjsPath1037" d="M68.68068139426254 81.16642372319956L68.68068139426254 90.80084215139925L68.68068139426242 90.80084215139925L68.68068139426242 97.83526057959892" stroke="#616161" stroke-width="2" fill="none" marker-end="url(#SvgjsMarker1038)"></path></g><g id="SvgjsG1040" transform="translate(41.18068139426242,101.43526057959895)"><path id="SvgjsPath1041" d="M 0 15.5L 9.166666666666666 0L 45.833333333333336 0L 55 15.5L 45.833333333333336 31L 9.166666666666666 31L 0 15.5Z" stroke="rgba(229,115,115,1)" stroke-width="2" fill-opacity="1" fill="#ffcdd2"></path><g id="SvgjsG1042"><text id="SvgjsText1043" font-family="Georgia" text-anchor="middle" font-size="12px" width="35px" fill="#616161" font-weight="700" align="middle" lineHeight="125%" anchor="middle" family="Georgia" size="12px" weight="700" font-style="" opacity="1" y="5.5" transform="rotate(0)"><tspan id="SvgjsTspan1044" dy="15" x="27.5"><tspan id="SvgjsTspan1045" style="text-decoration:;">cache</tspan></tspan></text></g></g><g id="SvgjsG1046"><path id="SvgjsPath1047" d="M68.68068139426225 133.43526057959895L68.68068139426225 146.5833633195208L68.68068139426242 146.5833633195208L68.68068139426242 156.63146605944263" stroke="#6c7a7a" stroke-width="2" fill="none" marker-end="url(#SvgjsMarker1048)"></path></g><g id="SvgjsG1050" transform="translate(34.86263083307597,160.73146605944265)"><path id="SvgjsPath1051" d="M 10.145415168355935 0L 60.44155143435074 0C 69.59825103728804 0 69.59825103728804 43.167298128132984 60.44155143435074 43.167298128132984L 10.145415168355935 43.167298128132984C -3.3818050561186457 43.167298128132984 -3.3818050561186457 0 10.145415168355935 0ZM 60.44155143435074 0C 51.44836432432304 0 51.44836432432304 43.167298128132984 60.44155143435074 43.167298128132984C 51.44836432432304 43.167298128132984 51.44836432432304 0 60.44155143435074 0" stroke="rgba(158,158,158,1)" stroke-width="3" fill-opacity="1" fill="#e0e0e0"></path><g id="SvgjsG1052"><text id="SvgjsText1053" font-family="Georgia" text-anchor="middle" font-size="12px" width="55px" fill="#646464" font-weight="700" align="middle" lineHeight="125%" anchor="middle" family="Georgia" size="12px" weight="700" font-style="" opacity="1" y="11.583649064066492" transform="rotate(0)"><tspan id="SvgjsTspan1054" dy="15" x="27.5"><tspan id="SvgjsTspan1055" style="text-decoration:;">Taxadb</tspan></tspan></text></g></g><g id="SvgjsG1056" transform="translate(189.3717488354024,166.81511512350914)"><path id="SvgjsPath1057" d="M 0 15.5L 11.166666666666666 0L 55.833333333333336 0L 67 15.5L 55.833333333333336 31L 11.166666666666666 31L 0 15.5Z" stroke="rgba(229,115,115,1)" stroke-width="2" fill-opacity="1" fill="#ffcdd2"></path><g id="SvgjsG1058"><text id="SvgjsText1059" font-family="Georgia" text-anchor="middle" font-size="12px" width="47px" fill="#616161" font-weight="700" align="middle" lineHeight="125%" anchor="middle" family="Georgia" size="12px" weight="700" font-style="" opacity="1" y="5.5" transform="rotate(0)"><tspan id="SvgjsTspan1060" dy="15" x="33.5"><tspan id="SvgjsTspan1061" style="text-decoration:;">search</tspan></tspan></text></g></g><g id="SvgjsG1062" transform="translate(112.39504076086928,94.43526057959895)"><path id="SvgjsPath1063" d="M 0 39.375L 0 0L 67.60798253864198 0L 67.60798253864198 39.375Q 50.70598690398148 28.125 33.80399126932099 39.375Q 16.901995634660494 50.625 0 39.375Z" stroke="rgba(158,158,158,1)" stroke-width="2" fill-opacity="1" fill="#e0e0e0"></path><g id="SvgjsG1064"><text id="SvgjsText1065" font-family="Georgia" text-anchor="middle" font-size="12px" width="68px" fill="#646464" font-weight="700" align="middle" lineHeight="125%" anchor="middle" family="Georgia" size="12px" weight="700" font-style="" opacity="1" y="10.25" transform="rotate(0)"><tspan id="SvgjsTspan1066" dy="15" x="34"><tspan id="SvgjsTspan1067" style="text-decoration:;">Revision</tspan></tspan></text></g></g><g id="SvgjsG1068"><path id="SvgjsPath1069" d="M146.19903203019027 135.3398407322709L146.19903203019027 182.31511512350914L185.77174883540238 182.31511512350914" stroke="#6c7a7a" stroke-width="2" fill="none" marker-end="url(#SvgjsMarker1070)"></path></g><g id="SvgjsG1072"><path id="SvgjsPath1073" d="M257.3717488354024 182.31511512350914L267.66519985425543 182.31511512350914L267.66519985425543 182.31511512350914L272.7586508731083 182.31511512350914" stroke="#000000" stroke-width="4" fill="none" marker-end="url(#SvgjsMarker1074)"></path></g><g id="SvgjsG1076"><path id="SvgjsPath1077" d="M311.4586508731089 81.16642372319956L311.4586508731089 119.99076942335432L311.45865087310835 119.99076942335432L311.45865087310835 156.21511512350912" stroke="#616161" stroke-width="2" fill="none" marker-end="url(#SvgjsMarker1078)"></path></g><g id="SvgjsG1080"><path id="SvgjsPath1081" d="M344.95865087310835 182.31511512350914L357.2575502955808 182.31511512350914L357.2575502955808 182.31511512350914L364.3564497180532 182.31511512350914" stroke="#000000" stroke-width="4" fill="none" marker-end="url(#SvgjsMarker1082)"></path></g><g id="SvgjsG1084" transform="translate(370.5564497180533,132.43526057959895)"><path id="SvgjsPath1085" d="M 0 0L 0 99.7597090878204L 84.4331753296201 99.7597090878204L 84.4331753296201 24.9399272719551L 56.288783553080066 0L 0 0Z" stroke="rgba(25,118,210,1)" stroke-width="2" fill-opacity="1" fill="#bbdefb"></path><path id="SvgjsPath1086" d="M 56.288783553080066 0L 56.288783553080066 24.9399272719551L 84.4331753296201 24.9399272719551" stroke="rgba(25,118,210,1)" stroke-width="2" fill-opacity="1" fill="#bbdefb"></path><path id="SvgjsPath1087" d="M 7.036097944135008 11.3133090906517L 24.62634280447253 11.3133090906517L 24.62634280447253 6.32532363626068L 35.18048972067504 15.46996363597755L 24.62634280447253 24.61460363569442L 24.62634280447253 19.6266181813034L 7.036097944135008 19.6266181813034L 7.036097944135008 11.3133090906517Z" stroke="rgba(25,118,210,1)" stroke-width="2" fill-opacity="1" fill="#323232"></path><path id="SvgjsPath1088" d="M 0 0L 84.4331753296201 0L 84.4331753296201 99.7597090878204L 0 99.7597090878204Z" stroke="none" fill="none"></path><g id="SvgjsG1089"><text id="SvgjsText1090" font-family="Georgia" text-anchor="middle" font-size="12px" width="65px" fill="#646464" font-weight="700" align="middle" lineHeight="125%" anchor="middle" family="Georgia" size="12px" weight="700" font-style="" opacity="1" y="17.3798545439102" transform="rotate(0)"><tspan id="SvgjsTspan1091" dy="15" x="42.5"><tspan id="SvgjsTspan1092" style="text-decoration:;"> </tspan></tspan><tspan id="SvgjsTspan1093" dy="15" x="42.5"><tspan id="SvgjsTspan1094" style="text-decoration:;">Phylogeny</tspan></tspan><tspan id="SvgjsTspan1095" dy="15" x="42.5"><tspan id="SvgjsTspan1096" style="text-decoration:;">Lineage</tspan></tspan><tspan id="SvgjsTspan1097" dy="15" x="42.5"><tspan id="SvgjsTspan1098" style="text-decoration:;">Entropy</tspan></tspan></text></g></g><g id="SvgjsG1099" transform="translate(278.95865087310835,159.81511512350914)"><path id="SvgjsPath1100" d="M 0 3.2Q 0 0 3.2 0L 48.800000000000004 0Q 52 0 52 3.2L 52 32.800000000000004Q 52 36 48.800000000000004 36L 3.2 36Q 0 36 0 32.800000000000004L 0 3.2M 52 6L 65 22.5L 48.800000000000004 45L 24.375 45L 16.25 36L 48.800000000000004 36Q 52 36 52 32.800000000000004" stroke="rgba(183,28,28,1)" stroke-width="2" fill-opacity="1" fill="#e57373"></path><g id="SvgjsG1101"><text id="SvgjsText1102" font-family="Georgia" text-anchor="middle" font-size="18px" width="52px" fill="#ffffff" font-weight="700" align="middle" lineHeight="125%" anchor="middle" family="Georgia" size="18px" weight="700" font-style="" opacity="1" y="2.25" transform="rotate(0)"><tspan id="SvgjsTspan1103" dy="22" x="26"><tspan id="SvgjsTspan1104" style="text-decoration:;">run</tspan></tspan></text></g></g><g id="SvgjsG1105" transform="translate(190.37174883540234,214.39299054289017)"><path id="SvgjsPath1106" d="M 0 4.9946091984430865Q 16.24999999999997 14.98382759532926 32.49999999999994 4.9946091984430865Q 48.749999999999915 -4.9946091984430865 64.99999999999989 4.9946091984430865L 64.99999999999989 34.962264389101605Q 48.749999999999915 24.973045992215432 32.49999999999994 34.962264389101605Q 16.24999999999997 44.95148278598778 0 34.962264389101605L 0 4.9946091984430865Z" stroke="rgba(158,158,158,1)" stroke-width="2" fill-opacity="1" fill="#e0e0e0"></path><g id="SvgjsG1107"><text id="SvgjsText1108" font-family="Georgia" text-anchor="middle" font-size="12px" width="65px" fill="#646464" font-weight="700" align="middle" lineHeight="125%" anchor="middle" family="Georgia" size="12px" weight="700" font-style="" opacity="1" y="9.978436793772348" transform="rotate(0)"><tspan id="SvgjsTspan1109" dy="15" x="32.5"><tspan id="SvgjsTspan1110" style="text-decoration:;">Lineage</tspan></tspan></text></g></g><g id="SvgjsG1111"><path id="SvgjsPath1112" d="M222.8717488354023 215.37513689544892L222.8717488354023 208.39512600947904L222.8717488354024 208.39512600947904L222.8717488354024 198.81511512350914" stroke="#6c7a7a" stroke-width="2" fill="none" marker-start="url(#SvgjsMarker1113)"></path></g><g id="SvgjsG1115"><path id="SvgjsPath1116" d="M222.87174883540195 137.05219885034035L222.87174883540195 151.43365698692475L222.8717488354024 151.43365698692475L222.8717488354024 163.21511512350912" stroke="#6c7a7a" stroke-width="2" fill="none" marker-end="url(#SvgjsMarker1117)"></path></g><g id="SvgjsG1119"><path id="SvgjsPath1120" d="M222.8717488354008 76.91642372320024L222.8717488354008 88.7398807635617L222.87174883540195 88.7398807635617L222.87174883540195 97.96333780392308" stroke="#6c7a7a" stroke-width="2" fill="none" marker-end="url(#SvgjsMarker1121)"></path></g><g id="SvgjsG1123" transform="translate(202.59576676065,98.1802760746645)"><path id="SvgjsPath1124" d="M 0 3.379330345792065Q 10.137991037376196 10.137991037376196 20.275982074752392 3.379330345792065Q 30.413973112128588 -3.379330345792065 40.551964149504784 3.379330345792065L 40.551964149504784 37.87565415914238Q 30.413973112128588 31.116993467558245 20.275982074752392 37.87565415914238Q 10.137991037376196 44.634314850726504 0 37.87565415914238L 0 3.379330345792065Z" stroke="rgba(158,158,158,1)" stroke-width="2" fill-opacity="1" fill="#e0e0e0"></path><g id="SvgjsG1125"><text id="SvgjsText1126" font-family="Georgia" text-anchor="middle" font-size="12px" width="41px" fill="#646464" font-weight="700" align="middle" lineHeight="125%" anchor="middle" family="Georgia" size="12px" weight="700" font-style="" opacity="1" y="3.1274922524672233" transform="rotate(0)"><tspan id="SvgjsTspan1127" dy="15" x="20.5"><tspan id="SvgjsTspan1128" style="text-decoration:;">name </tspan></tspan><tspan id="SvgjsTspan1129" dy="15" x="20.5"><tspan id="SvgjsTspan1130" style="text-decoration:;">list</tspan></tspan></text></g></g><g id="SvgjsG1131"><path id="SvgjsPath1132" d="M185.77174883540238 182.31511512350914L133.7195749223592 182.31511512350914L133.7195749223592 234.37142733666252L188.3717488354023 234.37142733666252" stroke="#6c7a7a" stroke-width="2" fill="none" marker-start="url(#SvgjsMarker1133)"></path></g><g id="SvgjsG1135"><path id="SvgjsPath1136" d="M103.99873195544887 182.31511512350914L145.93524039542564 182.31511512350914L145.93524039542564 182.31511512350914L183.1717488354024 182.31511512350914" stroke="#000000" stroke-width="4" fill="none" marker-end="url(#SvgjsMarker1137)"></path></g></svg>