<svg id="SvgjsSvg1006" width="463" height="403" xmlns="http://www.w3.org/2000/svg" version="1.1" xmlns:xlink="http://www.w3.org/1999/xlink" xmlns:svgjs="http://svgjs.com/svgjs"><defs id="SvgjsDefs1007"><marker id="SvgjsMarker1034" markerWidth="14" markerHeight="10" refX="10" refY="5" viewBox="0 0 14 10" orient="auto" markerUnits="userSpaceOnUse" stroke-dasharray="0,0"><path id="SvgjsPath1035" d="M0,0 L14,5 L0,10 L0,0" fill="#6c7a7a" stroke="#6c7a7a" stroke-width="1"></path></marker><marker id="SvgjsMarker1050" markerWidth="20" markerHeight="16" refX="13" refY="8" viewBox="0 0 20 16" orient="auto" markerUnits="userSpaceOnUse" stroke-dasharray="0,0"><path id="SvgjsPath1051" d="M0,0 L20,8 L0,16 L0,0" fill="#212121" stroke="#212121" stroke-width="1"></path></marker><marker id="SvgjsMarker1060" markerWidth="14" markerHeight="10" refX="10" refY="5" viewBox="0 0 14 10" orient="auto" markerUnits="userSpaceOnUse" stroke-dasharray="0,0"><path id="SvgjsPath1061" d="M0,0 L14,5 L0,10 L0,0" fill="#6c7a7a" stroke="#6c7a7a" stroke-width="1"></path></marker><marker id="SvgjsMarker1064" markerWidth="14" markerHeight="10" refX="10" refY="5" viewBox="0 0 14 10" orient="auto" markerUnits="userSpaceOnUse" stroke-dasharray="0,0"><path id="SvgjsPath1065" d="M0,0 L14,5 L0,10 L0,0" fill="#6c7a7a" stroke="#6c7a7a" stroke-width="1"></path></marker><marker id="SvgjsMarker1074" markerWidth="14" markerHeight="10" refX="10" refY="5" viewBox="0 0 14 10" orient="auto" markerUnits="userSpaceOnUse" stroke-dasharray="0,0"><path id="SvgjsPath1075" d="M0,0 L14,5 L0,10 L0,0" fill="#6c7a7a" stroke="#6c7a7a" stroke-width="1"></path></marker><marker id="SvgjsMarker1090" markerWidth="14" markerHeight="10" refX="10" refY="5" viewBox="0 0 14 10" orient="auto" markerUnits="userSpaceOnUse" stroke-dasharray="0,0"><path id="SvgjsPath1091" d="M0,0 L14,5 L0,10 L0,0" fill="#6c7a7a" stroke="#6c7a7a" stroke-width="1"></path></marker><marker id="SvgjsMarker1094" markerWidth="20" markerHeight="16" refX="13" refY="8" viewBox="0 0 20 16" orient="auto" markerUnits="userSpaceOnUse" stroke-dasharray="0,0"><path id="SvgjsPath1095" d="M0,0 L20,8 L0,16 L0,0" fill="#212121" stroke="#212121" stroke-width="1"></path></marker><marker id="SvgjsMarker1098" markerWidth="20" markerHeight="16" refX="13" refY="8" viewBox="0 0 20 16" orient="auto" markerUnits="userSpaceOnUse" stroke-dasharray="0,0"><path id="SvgjsPath1099" d="M0,0 L20,8 L0,16 L0,0" fill="#212121" stroke="#212121" stroke-width="1"></path></marker><marker id="SvgjsMarker1102" markerWidth="20" markerHeight="16" refX="13" refY="8" viewBox="0 0 20 16" orient="auto" markerUnits="userSpaceOnUse" stroke-dasharray="0,0"><path id="SvgjsPath1103" d="M0,0 L20,8 L0,16 L0,0" fill="#212121" stroke="#212121" stroke-width="1"></path></marker><marker id="SvgjsMarker1127" markerWidth="14" markerHeight="10" refX="10" refY="5" viewBox="0 0 14 10" orient="auto" markerUnits="userSpaceOnUse" stroke-dasharray="0,0"><path id="SvgjsPath1128" d="M0,0 L14,5 L0,10 L0,0" fill="#6c7a7a" stroke="#6c7a7a" stroke-width="1"></path></marker><marker id="SvgjsMarker1131" markerWidth="14" markerHeight="10" refX="10" refY="5" viewBox="0 0 14 10" orient="auto" markerUnits="userSpaceOnUse" stroke-dasharray="0,0"><path id="SvgjsPath1132" d="M0,0 L14,5 L0,10 L0,0" fill="#6c7a7a" stroke="#6c7a7a" stroke-width="1"></path></marker><marker id="SvgjsMarker1155" markerWidth="14" markerHeight="10" refX="10" refY="5" viewBox="0 0 14 10" orient="auto" markerUnits="userSpaceOnUse" stroke-dasharray="0,0"><path id="SvgjsPath1156" d="M0,0 L14,5 L0,10 L0,0" fill="#6c7a7a" stroke="#6c7a7a" stroke-width="1"></path></marker><marker id="SvgjsMarker1159" markerWidth="14" markerHeight="10" refX="4" refY="5" viewBox="0 0 14 10" orient="auto" markerUnits="userSpaceOnUse" stroke-dasharray="0,0"><path id="SvgjsPath1160" d="M14,0 L0,5 L14,10 L14,0" fill="#6c7a7a" stroke="#6c7a7a" stroke-width="1"></path></marker><marker id="SvgjsMarker1161" markerWidth="14" markerHeight="10" refX="10" refY="5" viewBox="0 0 14 10" orient="auto" markerUnits="userSpaceOnUse" stroke-dasharray="0,0"><path id="SvgjsPath1162" d="M0,0 L14,5 L0,10 L0,0" fill="#6c7a7a" stroke="#6c7a7a" stroke-width="1"></path></marker><marker id="SvgjsMarker1165" markerWidth="14" markerHeight="10" refX="10" refY="5" viewBox="0 0 14 10" orient="auto" markerUnits="userSpaceOnUse" stroke-dasharray="0,0"><path id="SvgjsPath1166" d="M0,0 L14,5 L0,10 L0,0" fill="#6c7a7a" stroke="#6c7a7a" stroke-width="1"></path></marker><marker id="SvgjsMarker1169" markerWidth="14" markerHeight="10" refX="10" refY="5" viewBox="0 0 14 10" orient="auto" markerUnits="userSpaceOnUse" stroke-dasharray="0,0"><path id="SvgjsPath1170" d="M0,0 L14,5 L0,10 L0,0" fill="#6c7a7a" stroke="#6c7a7a" stroke-width="1"></path></marker></defs><g id="SvgjsG1008" transform="translate(25.00452302631578,25.00740131578948)"><path id="SvgjsPath1009" d="M 0 0L 412.10526315789474 0L 412.10526315789474 352.93233082706763L 0 352.93233082706763Z" stroke="none" fill-opacity="1" fill="#ffffff"></path><g id="SvgjsG1010"><text id="SvgjsText1011" font-family="Georgia" text-anchor="middle" font-size="12px" width="393px" fill="#646464" font-weight="700" align="middle" lineHeight="125%" anchor="middle" family="Georgia" size="12px" weight="700" font-style="" opacity="1" y="166.46616541353382" transform="rotate(0)"></text></g></g><g id="SvgjsG1012" transform="translate(32.89925986842104,110.796875)"><path id="SvgjsPath1013" d="M 0 0L 278.42105263157896 0L 278.42105263157896 259.0476190476191L 0 259.0476190476191Z" stroke-dasharray="10,6" stroke="rgba(158,158,158,1)" stroke-width="2" fill-opacity="1" fill="#ffffff"></path><g id="SvgjsG1014"><text id="SvgjsText1015" font-family="Georgia" text-anchor="middle" font-size="12px" width="259px" fill="#646464" font-weight="700" align="middle" lineHeight="125%" anchor="middle" family="Georgia" size="12px" weight="700" font-style="" opacity="1" y="119.52380952380955" transform="rotate(0)"></text></g></g><g id="SvgjsG1016" transform="translate(119.71487226898358,30.371443746083713)"><path id="SvgjsPath1017" d="M 0 8.405526315789427C 0 -2.401578947368407 116.29582107442991 -2.401578947368407 116.29582107442991 8.405526315789427L 116.29582107442991 51.633947368420756C 116.29582107442991 62.441052631578586 0 62.441052631578586 0 51.633947368420756L 0 8.405526315789427Z" stroke="rgba(56,142,60,1)" stroke-width="2" fill-opacity="1" fill="#c8e6c9"></path><path id="SvgjsPath1018" d="M 116.29582107442991 8.405526315789427C 116.29582107442991 18.011842105263053 0 18.011842105263053 0 8.405526315789427L 0 12.007894736842037C 0 21.614210526315663 116.29582107442991 21.614210526315663 116.29582107442991 12.007894736842037L 116.29582107442991 15.610263157894646C 116.29582107442991 25.216578947368273 0 25.216578947368273 0 15.610263157894646C 0 25.216578947368273 116.29582107442991 25.216578947368273 116.29582107442991 15.610263157894646Z" stroke="rgba(56,142,60,1)" stroke-width="2" fill-opacity="1" fill="#c8e6c9"></path><path id="SvgjsPath1019" d="M 0 6.003947368421018Q 58.147910537214955 -6.003947368421018 116.29582107442991 6.003947368421018L 116.29582107442991 54.03552631578916Q 58.147910537214955 66.0434210526312 0 54.03552631578916L 0 6.003947368421018Z" stroke="none" fill="none"></path><g id="SvgjsG1020"><text id="SvgjsText1021" font-family="Georgia" text-anchor="middle" font-size="12px" width="117px" fill="#646464" font-weight="700" align="middle" lineHeight="125%" anchor="middle" family="Georgia" size="12px" weight="700" font-style="" opacity="1" y="30.02631578947345" transform="rotate(0)"><tspan id="SvgjsTspan1022" dy="15" x="58.5"><tspan id="SvgjsTspan1023" style="text-decoration:;">NCBI dump files</tspan></tspan></text></g></g><g id="SvgjsG1024" transform="translate(328.5164277882218,35.3911805881888)"><path id="SvgjsPath1025" d="M 16.666666666666668 0L 80.9561403508771 0C 103.17836257309934 0 103.17836257309934 50 80.9561403508771 50L 16.666666666666668 50C -5.555555555555556 50 -5.555555555555556 0 16.666666666666668 0Z" stroke="rgba(56,142,60,1)" stroke-width="2" fill-opacity="1" fill="#c8e6c9"></path><g id="SvgjsG1026"><text id="SvgjsText1027" font-family="Georgia" text-anchor="middle" font-size="12px" width="78px" fill="#646464" font-weight="700" align="middle" lineHeight="125%" anchor="middle" family="Georgia" size="12px" weight="700" font-style="" opacity="1" y="7.5" transform="rotate(0)"><tspan id="SvgjsTspan1028" dy="15" x="49"><tspan id="SvgjsTspan1029" style="text-decoration:;">Phylogenic </tspan></tspan><tspan id="SvgjsTspan1030" dy="15" x="49"><tspan id="SvgjsTspan1031" style="text-decoration:;">Tree</tspan></tspan></text></g></g><g id="SvgjsG1032"><path id="SvgjsPath1033" d="M377.32783129699374 86.3911805881888L377.32783129699374 118.09684856672882L93.55080721504385 118.09684856672882L93.55080721504385 139.8340954926374" stroke="#6c7a7a" stroke-width="2" fill="none" marker-end="url(#SvgjsMarker1034)"></path></g><g id="SvgjsG1036" transform="translate(61.55080721504385,143.43409549263743)"><path id="SvgjsPath1037" d="M 0 16.5L 10.666666666666666 0L 53.333333333333336 0L 64 16.5L 53.333333333333336 33L 10.666666666666666 33L 0 16.5Z" stroke="rgba(229,115,115,1)" stroke-width="2" fill-opacity="1" fill="#ffcdd2"></path><g id="SvgjsG1038"><text id="SvgjsText1039" font-family="Georgia" text-anchor="middle" font-size="12px" width="44px" fill="#616161" font-weight="700" align="middle" lineHeight="125%" anchor="middle" family="Georgia" size="12px" weight="700" font-style="" opacity="1" y="6.5" transform="rotate(0)"><tspan id="SvgjsTspan1040" dy="15" x="32"><tspan id="SvgjsTspan1041" style="text-decoration:;">leaf</tspan></tspan></text></g></g><g id="SvgjsG1042" transform="translate(145.86278280619854,274.3901819979637)"><path id="SvgjsPath1043" d="M 0 16.5L 10.666666666666666 0L 53.333333333333336 0L 64 16.5L 53.333333333333336 33L 10.666666666666666 33L 0 16.5Z" stroke="rgba(229,115,115,1)" stroke-width="2" fill-opacity="1" fill="#ffcdd2"></path><g id="SvgjsG1044"><text id="SvgjsText1045" font-family="Georgia" text-anchor="middle" font-size="12px" width="44px" fill="#616161" font-weight="700" align="middle" lineHeight="125%" anchor="middle" family="Georgia" size="12px" weight="700" font-style="" opacity="1" y="6.5" transform="rotate(0)"><tspan id="SvgjsTspan1046" dy="15" x="32"><tspan id="SvgjsTspan1047" style="text-decoration:;">query</tspan></tspan></text></g></g><g id="SvgjsG1048"><path id="SvgjsPath1049" d="M177.8627828061986 91.41091743029389L177.8627828061986 117.42250646146567L177.86278280619854 117.42250646146567L177.86278280619854 136.93409549263748" stroke="#212121" stroke-width="5" fill="none" marker-end="url(#SvgjsMarker1050)"></path></g><g id="SvgjsG1052" transform="translate(144.61278280619854,144.43409549263748)"><path id="SvgjsPath1053" d="M 0 15.5L 11.083333333333334 0L 55.416666666666664 0L 66.5 15.5L 55.416666666666664 31L 11.083333333333334 31L 0 15.5Z" stroke="rgba(229,115,115,1)" stroke-width="2" fill-opacity="1" fill="#ffcdd2"></path><g id="SvgjsG1054"><text id="SvgjsText1055" font-family="Georgia" text-anchor="middle" font-size="12px" width="47px" fill="#616161" font-weight="700" align="middle" lineHeight="125%" anchor="middle" family="Georgia" size="12px" weight="700" font-style="" opacity="1" y="5.5" transform="rotate(0)"><tspan id="SvgjsTspan1056" dy="15" x="33.5"><tspan id="SvgjsTspan1057" style="text-decoration:;">cache</tspan></tspan></text></g></g><g id="SvgjsG1058"><path id="SvgjsPath1059" d="M177.86278280619854 176.43409549263743L177.86278280619854 186.34433618225222L177.86278280619854 186.34433618225222L177.86278280619854 193.154576871867" stroke="#6c7a7a" stroke-width="2" fill="none" marker-end="url(#SvgjsMarker1060)"></path></g><g id="SvgjsG1062"><path id="SvgjsPath1063" d="M177.86278280619854 241.921875L177.86278280619854 257.40602849898187L177.86278280619842 257.40602849898187L177.86278280619842 270.79018199796366" stroke="#6c7a7a" stroke-width="2" fill="none" marker-end="url(#SvgjsMarker1064)"></path></g><g id="SvgjsG1066" transform="translate(144.04473224501209,197.25457687186702)"><path id="SvgjsPath1067" d="M 10.145415168355935 0L 60.44155143435074 0C 69.59825103728804 0 69.59825103728804 43.167298128132984 60.44155143435074 43.167298128132984L 10.145415168355935 43.167298128132984C -3.3818050561186457 43.167298128132984 -3.3818050561186457 0 10.145415168355935 0ZM 60.44155143435074 0C 51.44836432432304 0 51.44836432432304 43.167298128132984 60.44155143435074 43.167298128132984C 51.44836432432304 43.167298128132984 51.44836432432304 0 60.44155143435074 0" stroke="rgba(158,158,158,1)" stroke-width="3" fill-opacity="1" fill="#e0e0e0"></path><g id="SvgjsG1068"><text id="SvgjsText1069" font-family="Georgia" text-anchor="middle" font-size="12px" width="55px" fill="#646464" font-weight="700" align="middle" lineHeight="125%" anchor="middle" family="Georgia" size="12px" weight="700" font-style="" opacity="1" y="11.583649064066492" transform="rotate(0)"><tspan id="SvgjsTspan1070" dy="15" x="27.5"><tspan id="SvgjsTspan1071" style="text-decoration:;">Taxadb</tspan></tspan></text></g></g><g id="SvgjsG1072"><path id="SvgjsPath1073" d="M213.180833367385 218.8382259359335L223.98731969189282 218.8382259359335L223.98731969189282 218.8382259359335L232.69380601640057 218.8382259359335" stroke="#6c7a7a" stroke-width="2" fill="none" marker-end="url(#SvgjsMarker1074)"></path></g><g id="SvgjsG1076" transform="translate(236.2938060164006,203.3382259359335)"><path id="SvgjsPath1077" d="M 0 15.5L 11.166666666666666 0L 55.833333333333336 0L 67 15.5L 55.833333333333336 31L 11.166666666666666 31L 0 15.5Z" stroke="rgba(229,115,115,1)" stroke-width="2" fill-opacity="1" fill="#ffcdd2"></path><g id="SvgjsG1078"><text id="SvgjsText1079" font-family="Georgia" text-anchor="middle" font-size="12px" width="47px" fill="#616161" font-weight="700" align="middle" lineHeight="125%" anchor="middle" family="Georgia" size="12px" weight="700" font-style="" opacity="1" y="5.5" transform="rotate(0)"><tspan id="SvgjsTspan1080" dy="15" x="33.5"><tspan id="SvgjsTspan1081" style="text-decoration:;">search</tspan></tspan></text></g></g><g id="SvgjsG1082" transform="translate(237.2938060164006,137.43409549263748)"><path id="SvgjsPath1083" d="M 0 39.583333333333336L 0 0L 65 0L 65 39.583333333333336Q 48.75 28.75 32.5 39.583333333333336Q 16.25 50.416666666666664 0 39.583333333333336Z" stroke="rgba(158,158,158,1)" stroke-width="2" fill-opacity="1" fill="#e0e0e0"></path><g id="SvgjsG1084"><text id="SvgjsText1085" font-family="Georgia" text-anchor="middle" font-size="12px" width="65px" fill="#646464" font-weight="700" align="middle" lineHeight="125%" anchor="middle" family="Georgia" size="12px" weight="700" font-style="" opacity="1" y="10.25" transform="rotate(0)"><tspan id="SvgjsTspan1086" dy="15" x="32.5"><tspan id="SvgjsTspan1087" style="text-decoration:;">Revision</tspan></tspan></text></g></g><g id="SvgjsG1088"><path id="SvgjsPath1089" d="M269.7938060164005 178.33867564530942L269.7938060164005 190.33845079062144L269.7938060164006 190.33845079062144L269.7938060164006 199.73822593593349" stroke="#6c7a7a" stroke-width="2" fill="none" marker-end="url(#SvgjsMarker1090)"></path></g><g id="SvgjsG1092"><path id="SvgjsPath1093" d="M304.2938060164006 218.8382259359335L320.29076853138463 218.8382259359335L320.29076853138463 218.8382259359335L329.78773104636855 218.8382259359335" stroke="#212121" stroke-width="5" fill="none" marker-end="url(#SvgjsMarker1094)"></path></g><g id="SvgjsG1096"><path id="SvgjsPath1097" d="M377.32783129699374 86.39118058818869L377.32783129699374 138.27071646401123L377.32783129699374 138.27071646401123L377.32783129699374 183.6502523398338" stroke="#212121" stroke-width="5" fill="none" marker-end="url(#SvgjsMarker1098)"></path></g><g id="SvgjsG1100"><path id="SvgjsPath1101" d="M377.32783129699374 247.52619953203316L377.32783129699374 265.6295160185659L377.0146164076664 265.6295160185659L377.0146164076664 277.2328325050986" stroke="#212121" stroke-width="5" fill="none" marker-end="url(#SvgjsMarker1102)"></path></g><g id="SvgjsG1104" transform="translate(340.8040217731847,284.43096021303256)"><path id="SvgjsPath1105" d="M 0 0L 0 85.41353383458653L 90.51629072681544 85.41353383458653L 90.51629072681544 21.353383458646633L 60.34419381787696 0L 0 0Z" stroke="rgba(25,118,210,1)" stroke-width="2" fill-opacity="1" fill="#bbdefb"></path><path id="SvgjsPath1106" d="M 60.34419381787696 0L 60.34419381787696 21.353383458646633L 90.51629072681544 21.353383458646633" stroke="rgba(25,118,210,1)" stroke-width="2" fill-opacity="1" fill="#bbdefb"></path><path id="SvgjsPath1107" d="M 7.54302422723462 10.117794486215544L 26.400584795321173 10.117794486215544L 26.400584795321173 5.847117794486218L 37.7151211361731 13.676691729323316L 26.400584795321173 21.506265664160416L 26.400584795321173 17.23558897243109L 7.54302422723462 17.23558897243109L 7.54302422723462 10.117794486215544Z" stroke="rgba(25,118,210,1)" stroke-width="2" fill-opacity="1" fill="#323232"></path><path id="SvgjsPath1108" d="M 0 0L 90.51629072681544 0L 90.51629072681544 85.41353383458653L 0 85.41353383458653Z" stroke="none" fill="none"></path><g id="SvgjsG1109"><text id="SvgjsText1110" font-family="Georgia" text-anchor="middle" font-size="12px" width="71px" fill="#646464" font-weight="700" align="middle" lineHeight="125%" anchor="middle" family="Georgia" size="12px" weight="700" font-style="" opacity="1" y="10.206766917293265" transform="rotate(0)"><tspan id="SvgjsTspan1111" dy="15" x="45.5"><tspan id="SvgjsTspan1112" style="text-decoration:;"> </tspan></tspan><tspan id="SvgjsTspan1113" dy="15" x="45.5"><tspan id="SvgjsTspan1114" style="text-decoration:;">Phylogeny</tspan></tspan><tspan id="SvgjsTspan1115" dy="15" x="45.5"><tspan id="SvgjsTspan1116" style="text-decoration:;">Lineage</tspan></tspan><tspan id="SvgjsTspan1117" dy="15" x="45.5"><tspan id="SvgjsTspan1118" style="text-decoration:;">Entropy</tspan></tspan></text></g></g><g id="SvgjsG1119" transform="translate(337.28773104636855,191.1502523398338)"><path id="SvgjsPath1120" d="M 0 3.2Q 0 0 3.2 0L 60.864160401000305 0Q 64.06416040100031 0 64.06416040100031 3.2L 64.06416040100031 41.100757753759495Q 64.06416040100031 44.30075775375949 60.864160401000305 44.30075775375949L 3.2 44.30075775375949Q 0 44.30075775375949 0 41.100757753759495L 0 3.2M 64.06416040100031 6L 80.08020050125037 27.68797359609968L 60.864160401000305 55.37594719219936L 30.03007518796889 55.37594719219936L 20.020050125312594 44.30075775375949L 60.864160401000305 44.30075775375949Q 64.06416040100031 44.30075775375949 64.06416040100031 41.100757753759495" stroke="rgba(183,28,28,1)" stroke-width="2" fill-opacity="1" fill="#e57373"></path><g id="SvgjsG1121"><text id="SvgjsText1122" font-family="Georgia" text-anchor="middle" font-size="18px" width="65px" fill="#ffffff" font-weight="700" align="middle" lineHeight="125%" anchor="middle" family="Georgia" size="18px" weight="700" font-style="" opacity="1" y="6.400378876879746" transform="rotate(0)"><tspan id="SvgjsTspan1123" dy="22" x="32.5"><tspan id="SvgjsTspan1124" style="text-decoration:;">run</tspan></tspan></text></g></g><g id="SvgjsG1125"><path id="SvgjsPath1126" d="M166.0746167388532 341.6302083333333L177.86278280619854 341.6302083333333L177.86278280619854 310.9901819979637" stroke="#6c7a7a" stroke-width="2" fill="none" marker-end="url(#SvgjsMarker1127)"></path></g><g id="SvgjsG1129"><path id="SvgjsPath1130" d="M210.86278280619854 290.8901819979637L223.57829441129957 290.8901819979637L223.57829441129957 290.8901819979637L233.69380601640057 290.8901819979637" stroke="#6c7a7a" stroke-width="2" fill="none" marker-end="url(#SvgjsMarker1131)"></path></g><g id="SvgjsG1133" transform="translate(237.2938060164006,266.4725497826598)"><path id="SvgjsPath1134" d="M 0 5.416666666666667Q 16.25 16.25 32.5 5.416666666666667Q 48.75 -5.416666666666667 65 5.416666666666667L 65 43.418597763941044Q 48.75 32.58526443060771 32.5 43.418597763941044Q 16.25 54.25193109727437 0 43.418597763941044L 0 5.416666666666667Z" stroke="rgba(158,158,158,1)" stroke-width="2" fill-opacity="1" fill="#e0e0e0"></path><g id="SvgjsG1135"><text id="SvgjsText1136" font-family="Georgia" text-anchor="middle" font-size="12px" width="65px" fill="#646464" font-weight="700" align="middle" lineHeight="125%" anchor="middle" family="Georgia" size="12px" weight="700" font-style="" opacity="1" y="14.417632215303854" transform="rotate(0)"><tspan id="SvgjsTspan1137" dy="15" x="32.5"><tspan id="SvgjsTspan1138" style="text-decoration:;">Lineage</tspan></tspan></text></g></g><g id="SvgjsG1139" transform="translate(125.07461673885342,319.1302083333333)"><path id="SvgjsPath1140" d="M 0 3.3333333333333335Q 10 10 20 3.3333333333333335Q 30 -3.3333333333333335 40 3.3333333333333335L 40 41.666666666666664Q 30 35 20 41.666666666666664Q 10 48.333333333333336 0 41.666666666666664L 0 3.3333333333333335Z" stroke="rgba(158,158,158,1)" stroke-width="2" fill-opacity="1" fill="#e0e0e0"></path><g id="SvgjsG1141"><text id="SvgjsText1142" font-family="Georgia" text-anchor="middle" font-size="12px" width="40px" fill="#646464" font-weight="700" align="middle" lineHeight="125%" anchor="middle" family="Georgia" size="12px" weight="700" font-style="" opacity="1" y="5" transform="rotate(0)"><tspan id="SvgjsTspan1143" dy="15" x="20"><tspan id="SvgjsTspan1144" style="text-decoration:;">rank </tspan></tspan><tspan id="SvgjsTspan1145" dy="15" x="20"><tspan id="SvgjsTspan1146" style="text-decoration:;">list</tspan></tspan></text></g></g><g id="SvgjsG1147" transform="translate(39.58208105181296,326.13020833333326)"><path id="SvgjsPath1148" d="M 0 15.5L 11.083333333333334 0L 55.416666666666664 0L 66.5 15.5L 55.416666666666664 31L 11.083333333333334 31L 0 15.5Z" stroke="rgba(229,115,115,1)" stroke-width="2" fill-opacity="1" fill="#ffcdd2"></path><g id="SvgjsG1149"><text id="SvgjsText1150" font-family="Georgia" text-anchor="middle" font-size="12px" width="47px" fill="#616161" font-weight="700" align="middle" lineHeight="125%" anchor="middle" family="Georgia" size="12px" weight="700" font-style="" opacity="1" y="5.5" transform="rotate(0)"><tspan id="SvgjsTspan1151" dy="15" x="33.5"><tspan id="SvgjsTspan1152" style="text-decoration:;">rank</tspan></tspan></text></g></g><g id="SvgjsG1153"><path id="SvgjsPath1154" d="M107.08208105181296 341.63020833333326L115.57834889533319 341.63020833333326L115.57834889533319 341.6302083333333L121.4746167388534 341.6302083333333" stroke="#6c7a7a" stroke-width="2" fill="none" marker-end="url(#SvgjsMarker1155)"></path></g><g id="SvgjsG1157"><path id="SvgjsPath1158" d="M269.7938060164007 268.47284601946814L269.7938060164007 253.20553597770083L269.7938060164006 253.20553597770083L269.7938060164006 237.93822593593353" stroke="#6c7a7a" stroke-width="2" fill="none" marker-start="url(#SvgjsMarker1159)" marker-end="url(#SvgjsMarker1161)"></path></g><g id="SvgjsG1163"><path id="SvgjsPath1164" d="M93.5508072150439 246.29528689142472L93.5508072150439 290.8901819979637L142.26278280619852 290.8901819979637" stroke="#6c7a7a" stroke-width="2" fill="none" marker-end="url(#SvgjsMarker1165)"></path></g><g id="SvgjsG1167"><path id="SvgjsPath1168" d="M93.55080721504385 177.43409549263743L93.55080721504385 189.9648766239926L93.5508072150439 189.9648766239926L93.5508072150439 199.8956577553477" stroke="#6c7a7a" stroke-width="2" fill="none" marker-end="url(#SvgjsMarker1169)"></path></g><g id="SvgjsG1171" transform="translate(71.05080721504396,199.39547232338623)"><path id="SvgjsPath1172" d="M 0 3.749999999999981Q 11.249999999999943 11.249999999999943 22.499999999999886 3.749999999999981Q 33.74999999999983 -3.749999999999981 44.99999999999977 3.749999999999981L 44.99999999999977 46.25000000000002Q 33.74999999999983 38.75000000000006 22.499999999999886 46.25000000000002Q 11.249999999999943 53.74999999999998 0 46.25000000000002L 0 3.749999999999981Z" stroke="rgba(158,158,158,1)" stroke-width="2" fill-opacity="1" fill="#e0e0e0"></path><g id="SvgjsG1173"><text id="SvgjsText1174" font-family="Georgia" text-anchor="middle" font-size="12px" width="45px" fill="#646464" font-weight="700" align="middle" lineHeight="125%" anchor="middle" family="Georgia" size="12px" weight="700" font-style="" opacity="1" y="7.5" transform="rotate(0)"><tspan id="SvgjsTspan1175" dy="15" x="22.5"><tspan id="SvgjsTspan1176" style="text-decoration:;">name </tspan></tspan><tspan id="SvgjsTspan1177" dy="15" x="22.5"><tspan id="SvgjsTspan1178" style="text-decoration:;">list</tspan></tspan></text></g></g></svg>